# xmcd
#
# Track frame offsets:
#	150
#	15228
#	27065
#	37088
#	50264
#	64827
#	78048
#	89635
#	104858
#	120351
#	134869
#	147341
#	160399
#	178282
#	188370
#	202408
#	216209
#	229044
#	242351
#	256300
#
# Disc length: 3595 seconds
#
# Revision: 0
# Processed by: cddbd v1.5.1PL0 Copyright (c) Steve Scherf et al.
# Submitted via: EasyCDDAExtractor 8.2.1.1
#
DISCID=1d0e0914
DTITLE=Don Williams - Images
DYEAR=1978
DGENRE=Country
TTITLE0=I Recall a Gypsy Woman
TTITLE1=Don't You Believe
TTITLE2=Fly Away
TTITLE3=Goodbye isn't Really Good At All
TTITLE4=My Womans Love
TTITLE5=Reason To Be
TTITLE6=Such a Lovely Lady
TTITLE7=Tempted
TTITLE8=Till The Rivers All Run Dry
TTITLE9=She's In Love With A Rodeo Man
TTITLE10=You're My Best Friend
TTITLE11=Where Are You
TTITLE12=Where The Arkansas River Leaves Oklahoma
TTITLE13=Why Lord Goodbye
TTITLE14=Cup O'Tea
TTITLE15=Amanda
TTITLE16=Atta Way To Go
TTITLE17=In The Shelter Of Your Eyes
TTITLE18=We Should Be Together
TTITLE19=I Wouldn't Want To Live (if you didn't love me)
EXTD=
EXTT0=
EXTT1=
EXTT2=
EXTT3=
EXTT4=
EXTT5=
EXTT6=
EXTT7=
EXTT8=
EXTT9=
EXTT10=
EXTT11=
EXTT12=
EXTT13=
EXTT14=
EXTT15=
EXTT16=
EXTT17=
EXTT18=
EXTT19=
PLAYORDER=
